<?xml version="1.0" encoding="utf-8"?>
<!-- Generator: Adobe Illustrator 24.0.0, SVG Export Plug-In . SVG Version: 6.00 Build 0)  -->
<svg version="1.1" id="圖層_1" xmlns="http://www.w3.org/2000/svg" xmlns:xlink="http://www.w3.org/1999/xlink" x="0px" y="0px"
	 viewBox="0 0 745.66 66.12" style="enable-background:new 0 0 745.66 66.12;" xml:space="preserve">
<style type="text/css">
	.st0{fill:#FFFFFF;}
</style>
<g id="XMLID_2_">
	<path id="XMLID_80_" class="st0" d="M137.38,0c-18.23,0-35.68,14.83-38.89,33.06c-3.21,18.23,9,33.06,27.23,33.06
		s35.68-14.83,38.89-33.06C167.83,14.83,155.62,0,137.38,0z M128.32,51.4c-10.12,0-16.89-8.23-15.11-18.34
		c1.78-10.12,11.46-18.34,21.58-18.34c10.11,0,16.89,8.23,15.11,18.34C148.11,43.18,138.43,51.4,128.32,51.4z"/>
	<path id="XMLID_71_" class="st0" d="M230.36,0c-18.23,0-35.68,14.83-38.89,33.06c-3.21,18.23,9,33.06,27.23,33.06
		c18.23,0,35.68-14.83,38.89-33.06C260.8,14.83,248.59,0,230.36,0z M221.29,51.4c-10.12,0-16.89-8.23-15.11-18.34
		c1.78-10.12,11.46-18.34,21.58-18.34c10.11,0,16.89,8.23,15.11,18.34C241.08,43.18,231.41,51.4,221.29,51.4z"/>
	<path id="XMLID_70_" class="st0" d="M72.19,0.23L40.24,27.32c-0.41,0.35-1.03,0.29-1.37-0.12L16.76,0.35C16.58,0.13,16.3,0,16.01,0
		h-3.74c-0.47,0-0.87,0.34-0.95,0.8L0.01,64.9c-0.1,0.59,0.35,1.14,0.95,1.14h12.75c0.47,0,0.87-0.34,0.95-0.8l5.77-32.74
		c0.14-0.81,1.18-1.09,1.7-0.45L35.21,47.9c0.34,0.42,0.96,0.47,1.37,0.12l18.78-15.96c0.69-0.59,1.74,0.01,1.58,0.91L51.32,64.9
		c-0.1,0.59,0.35,1.14,0.95,1.14h12.75c0.47,0,0.87-0.34,0.95-0.8l11.3-64.1C77.38,0.54,76.92,0,76.32,0h-3.51
		C72.59,0,72.37,0.08,72.19,0.23z"/>
	<path id="XMLID_69_" class="st0" d="M511.93,0.8l-4.12,23.37c-0.08,0.46-0.48,0.8-0.95,0.8h-28.85c-0.6,0-1.06-0.54-0.95-1.14
		l4.01-22.72c0-0.02,0.01-0.04,0.01-0.06v0C481.12,0.49,480.67,0,480.1,0h-12.75c-0.47,0-0.87,0.34-0.95,0.8l-11.3,64.1
		c-0.1,0.59,0.35,1.14,0.95,1.14h12.75c0.47,0,0.87-0.34,0.95-0.8l4.38-24.84c0.08-0.46,0.48-0.8,0.95-0.8h28.85
		c0.6,0,1.06,0.54,0.95,1.14l-4.26,24.19c0,0.02-0.01,0.04-0.01,0.06l0,0c-0.05,0.57,0.39,1.06,0.96,1.06h12.75
		c0.47,0,0.87-0.34,0.95-0.8l11.3-64.1c0.1-0.59-0.35-1.14-0.95-1.14h-12.75C512.41,0,512.01,0.34,511.93,0.8z"/>
	<path id="XMLID_68_" class="st0" d="M554.58,0.8l-11.3,64.1c-0.1,0.59,0.35,1.14,0.95,1.14h12.75c0.47,0,0.87-0.34,0.95-0.8
		l11.3-64.1c0.1-0.59-0.35-1.14-0.95-1.14h-12.75C555.06,0,554.66,0.34,554.58,0.8z"/>
	<path id="XMLID_67_" class="st0" d="M335.57,0.8l-6.09,34.54c-0.14,0.79-1.13,1.08-1.67,0.48L295.54,0.32
		C295.36,0.12,295.1,0,294.83,0h-3.75c-0.47,0-0.87,0.34-0.95,0.8l-11.3,64.1c-0.1,0.59,0.35,1.14,0.95,1.14h12.75
		c0.47,0,0.87-0.34,0.95-0.8l6.02-34.14c0.14-0.79,1.13-1.08,1.67-0.48l31.99,35.11c0.18,0.2,0.44,0.32,0.72,0.32h4.1
		c0.47,0,0.87-0.34,0.95-0.8l11.3-64.1c0.1-0.59-0.35-1.14-0.95-1.14h-12.75C336.05,0,335.65,0.34,335.57,0.8z"/>
	<path id="XMLID_66_" class="st0" d="M642.67,0.8l-6.09,34.54c-0.14,0.79-1.13,1.08-1.67,0.48L602.64,0.32
		C602.46,0.12,602.2,0,601.93,0h-3.75c-0.47,0-0.87,0.34-0.95,0.8l-11.3,64.1c-0.1,0.59,0.35,1.14,0.95,1.14h12.75
		c0.47,0,0.87-0.34,0.95-0.8l6.02-34.14c0.14-0.79,1.13-1.08,1.67-0.48l31.99,35.11c0.18,0.2,0.44,0.32,0.72,0.32h4.1
		c0.47,0,0.87-0.34,0.95-0.8l11.3-64.1c0.1-0.59-0.35-1.14-0.95-1.14h-12.75C643.15,0,642.75,0.34,642.67,0.8z"/>
	<path id="XMLID_65_" class="st0" d="M413.62,24.97H393.8c-2.83,0-4.72-2.3-4.22-5.13c0.51-2.88,3.22-5.21,6.04-5.21h34.71
		c0.32,0,0.61-0.16,0.8-0.42L437.51,5c0.08-0.11,0.13-0.25,0.16-0.38l0.61-3.48c0.1-0.59-0.35-1.14-0.95-1.14H398.2
		c-10.94,0-21.42,8.9-23.34,19.84c-1.92,10.89,5.42,19.75,16.35,19.75h19.83c3.23,0,5.39,2.67,4.81,5.95
		c-0.57,3.23-3.66,5.86-6.89,5.86h-34.1c-0.32,0-0.61,0.16-0.8,0.42l-6.38,9.21c-0.08,0.11-0.13,0.25-0.16,0.38l-0.61,3.48
		c-0.1,0.59,0.35,1.14,0.95,1.14h38.52c11.35,0,22.2-9.19,24.19-20.49C432.58,34.2,424.97,24.97,413.62,24.97z"/>
	<path id="XMLID_64_" class="st0" d="M737.7,14.63c0.32,0,0.61-0.16,0.8-0.42l6.34-9.15l0.17-0.3l0.64-3.63
		c0.1-0.59-0.35-1.14-0.95-1.14h-58.13c-0.02,0-0.03,0-0.05,0l-0.3,0.02c-0.45,0.02-0.82,0.35-0.9,0.8l-11.3,64.08
		c-0.1,0.59,0.35,1.14,0.95,1.14h53.67c0.32,0,0.61-0.16,0.8-0.42l6.38-9.21c0.08-0.11,0.13-0.25,0.16-0.38l0.61-3.48
		c0.1-0.59-0.35-1.14-0.95-1.14h-43.36c-0.6,0-1.06-0.54-0.95-1.14l1.74-9.87c0.08-0.46,0.48-0.8,0.95-0.8h32.13
		c0.32,0,0.61-0.16,0.8-0.42l6.38-9.21c0.08-0.11,0.13-0.25,0.16-0.38l0.61-3.48c0.1-0.59-0.35-1.14-0.95-1.14h-36.2
		c-0.6,0-1.06-0.54-0.95-1.14l1.48-8.4c0.08-0.46,0.48-0.8,0.95-0.8H737.7z"/>
</g>
</svg>
