<svg width="154" height="14" viewBox="0 0 154 14" fill="none" xmlns="http://www.w3.org/2000/svg">
<g clip-path="url(#clip0_610_15)">
<path d="M28.3729 0C24.6079 0 21.004 3.06282 20.341 6.82783C19.6781 10.5928 22.1998 13.6557 25.9648 13.6557C29.7298 13.6557 33.3337 10.5928 33.9967 6.82783C34.6617 3.06282 32.14 0 28.3729 0ZM26.5018 10.6156C24.4117 10.6156 23.0135 8.91583 23.3811 6.82783C23.7488 4.73776 25.748 3.0401 27.838 3.0401C29.926 3.0401 31.3263 4.73983 30.9587 6.82783C30.589 8.9179 28.5898 10.6156 26.5018 10.6156Z" fill="white"/>
<path d="M47.5759 0C43.8109 0 40.207 3.06282 39.544 6.82783C38.8811 10.5928 41.4028 13.6557 45.1678 13.6557C48.9328 13.6557 52.5367 10.5928 53.1997 6.82783C53.8627 3.06282 51.3409 0 47.5759 0ZM45.7027 10.6156C43.6126 10.6156 42.2145 8.91583 42.5821 6.82783C42.9497 4.73776 44.9489 3.0401 47.039 3.0401C49.127 3.0401 50.5272 4.73983 50.1596 6.82783C49.7899 8.9179 47.7928 10.6156 45.7027 10.6156Z" fill="white"/>
<path d="M14.9093 0.0475015L8.31073 5.64236C8.22605 5.71464 8.098 5.70225 8.02778 5.61757L3.46144 0.072285C3.42426 0.0268487 3.36644 0 3.30654 0H2.53413C2.43706 0 2.35445 0.0702197 2.33792 0.165223L0.00208821 13.4037C-0.0185646 13.5255 0.0743732 13.6391 0.19829 13.6391H2.83153C2.9286 13.6391 3.01121 13.5689 3.02773 13.4739L4.2194 6.71217C4.24831 6.54489 4.4631 6.48706 4.5705 6.61924L7.27189 9.89271C7.34211 9.97946 7.47016 9.98978 7.55483 9.9175L11.4334 6.6213C11.5759 6.49945 11.7928 6.62337 11.7598 6.80924L10.5991 13.4037C10.5784 13.5255 10.6713 13.6391 10.7953 13.6391H13.4285C13.5256 13.6391 13.6082 13.5689 13.6247 13.4739L15.9585 0.235442C15.9812 0.111525 15.8862 0 15.7623 0H15.0374C14.9919 0 14.9465 0.0165223 14.9093 0.0475015Z" fill="white"/>
<path d="M105.728 0.165223L104.877 4.99179C104.861 5.0868 104.778 5.15702 104.681 5.15702H98.7227C98.5988 5.15702 98.5038 5.04549 98.5265 4.92157L99.3547 0.229247C99.3547 0.225116 99.3568 0.220985 99.3568 0.216855C99.365 0.101199 99.2721 0 99.1544 0H96.5211C96.4241 0 96.3415 0.0702197 96.3249 0.165223L93.9912 13.4037C93.9705 13.5255 94.0634 13.6391 94.1874 13.6391H96.8206C96.9177 13.6391 97.0003 13.5689 97.0168 13.4739L97.9214 8.34375C97.9379 8.24875 98.0205 8.17853 98.1176 8.17853H104.076C104.2 8.17853 104.295 8.29005 104.272 8.41397L103.392 13.4099C103.392 13.414 103.39 13.4182 103.39 13.4223C103.38 13.54 103.471 13.6412 103.589 13.6412H106.222C106.319 13.6412 106.401 13.571 106.418 13.476L108.752 0.237508C108.772 0.115656 108.679 0.00206528 108.556 0.00206528H105.922C105.827 0 105.745 0.0702197 105.728 0.165223Z" fill="white"/>
<path d="M114.537 0.165223L112.203 13.4037C112.182 13.5255 112.275 13.6391 112.399 13.6391H115.032C115.129 13.6391 115.212 13.5689 115.228 13.4739L117.562 0.235442C117.583 0.113591 117.49 0 117.366 0H114.733C114.636 0 114.553 0.0702197 114.537 0.165223Z" fill="white"/>
<path d="M69.3048 0.165223L68.047 7.29872C68.0181 7.46187 67.8137 7.52177 67.7021 7.39785L61.0375 0.0660891C61.0003 0.0247834 60.9466 0 60.8908 0H60.1164C60.0193 0 59.9367 0.0702197 59.9202 0.165223L57.5864 13.4037C57.5657 13.5255 57.6587 13.6391 57.7826 13.6391H60.4158C60.5129 13.6391 60.5955 13.5689 60.612 13.4739L61.8553 6.42303C61.8842 6.25988 62.0887 6.19998 62.2002 6.3239L68.8071 13.5751C68.8442 13.6164 68.8979 13.6412 68.9558 13.6412H69.8025C69.8996 13.6412 69.9822 13.571 69.9987 13.476L72.3325 0.237508C72.3532 0.115656 72.2602 0.00206528 72.1363 0.00206528H69.5031C69.4039 0 69.3213 0.0702197 69.3048 0.165223Z" fill="white"/>
<path d="M132.73 0.165223L131.472 7.29872C131.443 7.46187 131.239 7.52177 131.127 7.39785L124.462 0.0660891C124.425 0.0247834 124.371 0 124.316 0H123.541C123.444 0 123.362 0.0702197 123.345 0.165223L121.011 13.4037C120.991 13.5255 121.084 13.6391 121.207 13.6391H123.841C123.938 13.6391 124.02 13.5689 124.037 13.4739L125.28 6.42303C125.309 6.25988 125.514 6.19998 125.625 6.3239L132.232 13.5751C132.269 13.6164 132.323 13.6412 132.381 13.6412H133.227C133.324 13.6412 133.407 13.571 133.424 13.476L135.757 0.237508C135.778 0.115656 135.685 0.00206528 135.561 0.00206528H132.928C132.829 0 132.746 0.0702197 132.73 0.165223Z" fill="white"/>
<path d="M85.4243 5.15702H81.3309C80.7464 5.15702 80.3561 4.682 80.4594 4.09752C80.5647 3.50272 81.1244 3.02151 81.7068 3.02151H88.8754C88.9415 3.02151 89.0014 2.98847 89.0406 2.93477L90.3583 1.03264C90.3748 1.00992 90.3851 0.98101 90.3913 0.954161L90.5173 0.235442C90.5379 0.113591 90.445 0 90.3211 0H82.2396C79.9802 0 77.8158 1.8381 77.4193 4.09752C77.0227 6.34662 78.5386 8.17646 80.796 8.17646H84.8915C85.5585 8.17646 86.0046 8.72789 85.8849 9.40531C85.7671 10.0724 85.129 10.6156 84.4619 10.6156H77.4193C77.3532 10.6156 77.2933 10.6486 77.254 10.7023L75.9364 12.6044C75.9199 12.6271 75.9095 12.6561 75.9033 12.6829L75.7774 13.4016C75.7567 13.5235 75.8496 13.6371 75.9736 13.6371H83.929C86.2731 13.6371 88.514 11.7391 88.925 9.40531C89.3401 7.06327 87.7684 5.15702 85.4243 5.15702Z" fill="white"/>
<path d="M152.356 3.0215C152.422 3.0215 152.482 2.98846 152.521 2.93476L153.831 1.04502L153.866 0.983066L153.998 0.233367C154.019 0.111515 153.926 -0.0020752 153.802 -0.0020752H141.796C141.792 -0.0020752 141.79 -0.0020752 141.786 -0.0020752L141.724 0.00205537C141.631 0.00618594 141.555 0.0743403 141.538 0.167278L139.204 13.4016C139.184 13.5235 139.277 13.6371 139.4 13.6371H150.485C150.551 13.6371 150.611 13.604 150.65 13.5503L151.968 11.6482C151.984 11.6255 151.995 11.5966 152.001 11.5697L152.127 10.851C152.147 10.7291 152.054 10.6156 151.931 10.6156H142.976C142.852 10.6156 142.757 10.504 142.779 10.3801L143.139 8.34167C143.155 8.24667 143.238 8.17645 143.335 8.17645H149.971C150.037 8.17645 150.097 8.14341 150.136 8.08971L151.454 6.18758C151.47 6.16486 151.48 6.13595 151.487 6.1091L151.613 5.39038C151.633 5.26853 151.54 5.15494 151.416 5.15494H143.94C143.816 5.15494 143.721 5.04341 143.744 4.9195L144.049 3.18466C144.066 3.08966 144.149 3.01944 144.246 3.01944H152.356V3.0215Z" fill="white"/>
</g>
<defs>
<clipPath id="clip0_610_15">
<rect width="154" height="13.6557" fill="white"/>
</clipPath>
</defs>
</svg>
