<svg width="20" height="21" viewBox="0 0 20 21" fill="none" xmlns="http://www.w3.org/2000/svg">
<path d="M18.5714 0H1.42411C0.638393 0 0 0.657859 0 1.46544V18.8601C0 19.6677 0.638393 20.3256 1.42411 20.3256H18.5714C19.3571 20.3256 20 19.6677 20 18.8601V1.46544C20 0.657859 19.3571 0 18.5714 0ZM6.04464 17.4219H3.08036V7.72191H6.04911V17.4219H6.04464ZM4.5625 6.39711C3.61161 6.39711 2.84375 5.61222 2.84375 4.65038C2.84375 3.68855 3.61161 2.90365 4.5625 2.90365C5.50893 2.90365 6.28125 3.68855 6.28125 4.65038C6.28125 5.61676 5.51339 6.39711 4.5625 6.39711ZM17.1562 17.4219H14.192V12.7035C14.192 11.5783 14.1696 10.131 12.6518 10.131C11.1071 10.131 10.8705 11.356 10.8705 12.6218V17.4219H7.90625V7.72191H10.75V9.0467H10.7902C11.1875 8.28449 12.1563 7.48145 13.5982 7.48145C16.5982 7.48145 17.1562 9.49132 17.1562 12.1046V17.4219Z" fill="white"/>
</svg>
